<?xml version="1.0" standalone="no"?>
<!DOCTYPE svg PUBLIC "-//W3C//DTD SVG 20010904//EN"
 "http://www.w3.org/TR/2001/REC-SVG-20010904/DTD/svg10.dtd">
<svg version="1.0" xmlns="http://www.w3.org/2000/svg"
 width="2364.000000pt" height="2364.000000pt" viewBox="0 0 2364.000000 2364.000000"
 preserveAspectRatio="xMidYMid meet">
<metadata>
Created by potrace 1.11, written by Peter Selinger 2001-2013
</metadata>
<g transform="translate(0.000000,2364.000000) scale(0.100000,-0.100000)"
fill="#000000" stroke="none">
<path d="M14407 20644 c-2 -2 -34 -6 -73 -9 -38 -3 -80 -8 -94 -11 -14 -3
-126 -7 -250 -9 -124 -2 -234 -5 -246 -8 -12 -3 -43 -8 -70 -12 -27 -3 -56 -7
-64 -9 -28 -5 -75 -18 -90 -23 -8 -3 -22 -7 -30 -8 -59 -8 -267 -104 -327
-150 -7 -5 -40 -30 -73 -55 -33 -25 -62 -53 -65 -62 -4 -10 -10 -17 -14 -15
-11 3 -131 -118 -131 -133 0 -6 -4 -9 -9 -6 -9 6 -26 -22 -23 -36 1 -5 -4 -8
-12 -8 -13 0 -31 -27 -28 -42 1 -5 -2 -8 -8 -8 -17 0 -150 -220 -133 -220 4 0
3 -4 -3 -8 -14 -10 -84 -179 -77 -186 4 -3 1 -6 -5 -6 -7 0 -12 -7 -12 -15 0
-8 -4 -23 -9 -33 -14 -27 -42 -96 -45 -112 -2 -8 -8 -26 -13 -40 -31 -74 -62
-170 -55 -170 4 0 2 -4 -3 -8 -9 -6 -72 -174 -79 -207 -1 -5 -4 -14 -7 -20 -7
-10 -29 -77 -33 -98 -2 -7 -6 -21 -10 -32 -5 -11 -15 -38 -23 -60 -8 -22 -17
-47 -18 -55 -2 -8 -20 -61 -39 -118 -19 -56 -37 -110 -38 -120 -2 -9 -5 -19
-8 -22 -8 -8 -43 -118 -43 -135 0 -8 -4 -15 -8 -15 -6 0 -23 -70 -19 -79 1 -2
-4 -7 -10 -11 -7 -4 -13 -19 -13 -34 -1 -14 -6 -26 -11 -26 -5 0 -6 -3 -3 -7
4 -3 2 -11 -3 -18 -5 -6 -11 -20 -13 -31 -2 -10 -7 -26 -10 -34 -30 -72 -54
-149 -50 -154 4 -3 1 -6 -5 -6 -7 0 -11 -3 -10 -7 1 -5 -4 -21 -11 -38 -7 -16
-14 -34 -15 -40 -1 -5 -8 -20 -14 -33 -7 -12 -10 -27 -7 -32 3 -6 2 -10 -3
-10 -9 0 -27 -47 -24 -62 1 -5 -3 -8 -9 -8 -6 0 -9 -6 -6 -14 3 -8 1 -16 -4
-18 -6 -2 -11 -10 -13 -18 -2 -8 -7 -24 -11 -35 -7 -18 -28 -71 -57 -145 -5
-14 -9 -26 -9 -28 1 -1 -6 -16 -14 -32 -9 -17 -13 -30 -10 -30 3 0 -2 -11 -11
-25 -9 -14 -13 -25 -9 -25 4 0 3 -6 -2 -12 -6 -7 -24 -50 -42 -95 -17 -45 -38
-99 -47 -120 -9 -21 -22 -51 -29 -68 -21 -51 -137 -349 -139 -360 -1 -5 -7
-19 -13 -30 -6 -11 -11 -22 -11 -25 -1 -10 -15 -46 -34 -89 -11 -24 -20 -52
-21 -62 -1 -11 -4 -19 -8 -19 -6 0 -16 -24 -24 -58 -2 -7 -13 -33 -24 -58 -12
-24 -21 -50 -21 -57 0 -8 -3 -17 -7 -21 -5 -4 -8 -11 -8 -14 -1 -4 -6 -16 -12
-27 -6 -11 -11 -22 -11 -25 0 -3 -6 -18 -12 -35 -7 -16 -13 -34 -14 -40 -4
-13 -23 -63 -36 -90 -32 -71 -49 -118 -45 -125 3 -5 2 -10 -2 -12 -10 -4 -76
-165 -76 -184 0 -8 -4 -14 -8 -14 -4 0 -10 -12 -15 -27 -10 -37 -20 -65 -43
-118 -33 -77 -44 -108 -44 -120 0 -8 -4 -15 -8 -15 -4 0 -10 -13 -14 -30 -4
-16 -11 -32 -16 -35 -5 -4 -9 -13 -9 -21 0 -8 -9 -33 -19 -55 -11 -21 -15 -36
-9 -33 6 4 2 -6 -8 -21 -10 -16 -19 -34 -20 -41 -1 -7 -9 -27 -18 -45 -9 -17
-13 -35 -10 -40 3 -5 0 -9 -5 -9 -6 0 -11 -8 -11 -18 0 -10 -4 -22 -8 -27 -5
-6 -20 -41 -35 -80 -14 -38 -32 -83 -38 -100 -7 -16 -13 -32 -14 -35 -1 -3 -4
-12 -7 -20 -4 -8 -9 -24 -14 -35 -4 -11 -6 -23 -6 -27 1 -5 -2 -8 -8 -8 -5 0
-10 -6 -10 -14 0 -8 -9 -35 -19 -60 -11 -25 -21 -53 -23 -63 -2 -10 -6 -20 -9
-23 -9 -8 -84 -204 -81 -212 1 -5 -3 -8 -9 -8 -5 0 -8 -3 -6 -8 3 -4 -4 -25
-14 -47 -11 -22 -21 -50 -24 -64 -2 -13 -10 -28 -16 -32 -6 -4 -9 -11 -5 -17
3 -6 2 -13 -3 -16 -5 -4 -15 -23 -22 -44 -6 -20 -20 -55 -29 -77 -10 -22 -20
-49 -22 -60 -1 -11 -6 -22 -9 -25 -8 -7 -92 -223 -92 -237 0 -7 -4 -13 -8 -13
-7 0 -24 -49 -21 -62 1 -5 -3 -8 -8 -8 -6 0 -10 -6 -8 -12 1 -7 -4 -24 -12
-38 -7 -14 -13 -27 -13 -30 0 -3 -7 -21 -15 -40 -8 -19 -15 -39 -16 -45 -2 -5
-10 -28 -20 -50 -10 -22 -19 -44 -20 -50 -1 -5 -8 -20 -14 -32 -7 -13 -10 -23
-7 -23 3 0 -2 -11 -11 -25 -9 -14 -14 -25 -10 -25 3 0 -3 -16 -14 -35 -11 -20
-20 -44 -20 -53 0 -10 -7 -27 -15 -38 -8 -10 -15 -25 -15 -32 0 -8 -14 -46
-31 -85 -17 -39 -33 -78 -34 -86 -2 -9 -4 -16 -5 -16 -1 0 -3 -9 -5 -19 -2
-10 -9 -22 -15 -26 -6 -4 -10 -11 -9 -16 2 -5 -5 -27 -15 -49 -10 -22 -19 -44
-20 -50 -1 -5 -5 -15 -8 -21 -4 -6 -17 -37 -28 -70 -12 -32 -28 -72 -35 -89
-20 -46 -189 -476 -190 -485 0 -3 -11 -27 -23 -54 -12 -27 -22 -51 -22 -55 0
-6 -59 -156 -87 -220 -8 -18 -16 -39 -18 -45 -1 -6 -7 -24 -14 -41 -15 -38
-18 -48 -20 -60 -1 -5 -9 -20 -16 -32 -8 -12 -17 -30 -18 -40 -4 -18 -10 -33
-42 -108 -9 -22 -18 -44 -19 -50 -2 -5 -8 -21 -13 -35 -55 -131 -80 -200 -75
-204 3 -3 -1 -6 -8 -6 -7 0 -11 -3 -7 -6 3 -3 -8 -35 -24 -71 -16 -36 -27 -69
-24 -73 3 -5 0 -10 -5 -12 -6 -2 -12 -10 -14 -18 -1 -8 -8 -25 -14 -38 -7 -12
-10 -27 -7 -32 3 -6 1 -10 -4 -10 -6 0 -11 -6 -11 -12 0 -7 -6 -25 -14 -40 -8
-14 -19 -43 -26 -65 -7 -21 -18 -44 -24 -52 -9 -12 -8 -13 4 -6 11 6 10 3 -2
-12 -10 -11 -18 -27 -18 -36 0 -9 -5 -19 -11 -22 -6 -4 -8 -13 -5 -21 3 -7 1
-16 -3 -18 -10 -6 -74 -165 -74 -183 0 -7 -4 -13 -8 -13 -4 0 -10 -11 -13 -25
-3 -13 -11 -37 -17 -52 -6 -15 -9 -28 -7 -28 2 -1 -5 -13 -14 -27 -10 -14 -19
-37 -22 -51 -2 -13 -9 -33 -15 -43 -24 -43 -50 -117 -45 -125 3 -5 1 -9 -4 -9
-9 0 -27 -47 -24 -63 1 -4 -2 -7 -8 -7 -6 0 -9 -3 -8 -7 1 -5 -4 -19 -9 -33
-35 -82 -70 -180 -65 -180 4 0 2 -4 -5 -8 -6 -4 -13 -16 -15 -27 -1 -11 -6
-22 -10 -25 -3 -3 -8 -14 -10 -25 -1 -11 -5 -22 -8 -25 -6 -5 -48 -113 -54
-135 -1 -5 -8 -21 -16 -35 -7 -14 -13 -27 -13 -30 1 -3 -5 -19 -12 -36 -7 -17
-16 -42 -20 -55 -4 -13 -12 -29 -17 -36 -5 -7 -7 -17 -3 -23 3 -5 1 -10 -5
-10 -6 0 -8 -4 -5 -10 3 -5 1 -10 -4 -10 -6 0 -11 -6 -11 -12 0 -7 -20 -62
-44 -123 -24 -60 -56 -141 -70 -180 -15 -38 -31 -78 -37 -89 -6 -10 -12 -26
-14 -36 -2 -10 -10 -31 -18 -46 l-15 -28 -14 34 c-8 19 -32 89 -53 155 -22 66
-42 122 -45 125 -3 3 -5 10 -6 15 -2 26 -17 75 -23 75 -4 0 -8 12 -9 27 -1 15
-8 30 -15 35 -6 4 -9 8 -5 8 4 0 -9 46 -28 103 -20 56 -37 107 -38 112 -2 6
-5 17 -8 25 -3 8 -16 44 -28 80 -12 36 -24 72 -27 80 -4 8 -7 17 -8 20 -1 3
-6 20 -10 38 -4 17 -11 32 -16 32 -5 0 -6 7 -3 15 4 8 1 15 -6 15 -6 0 -8 4
-5 10 3 5 1 19 -5 31 -7 11 -14 32 -16 46 -3 15 -10 36 -17 47 -6 12 -12 26
-12 31 -4 30 -18 75 -24 75 -4 0 -7 8 -8 18 -1 9 -7 31 -13 47 -6 17 -11 30
-10 30 0 0 -9 27 -20 60 -12 33 -23 65 -24 70 -2 6 -6 18 -9 28 -7 17 -15 41
-18 55 -2 4 -18 50 -36 102 -19 52 -36 102 -38 110 -1 8 -11 35 -20 60 -18 49
-18 52 -30 95 -4 17 -10 35 -14 40 -3 6 -7 19 -8 30 -2 10 -9 23 -16 27 -6 4
-9 8 -5 8 3 0 -14 60 -39 133 -25 72 -46 137 -47 142 -6 27 -30 91 -39 103 -5
6 -6 12 -2 12 4 0 3 6 -2 13 -6 6 -13 29 -17 50 -4 20 -11 37 -15 37 -5 0 -8
6 -8 13 2 22 -27 107 -36 107 -4 0 -6 4 -3 9 4 5 -3 30 -14 55 -10 25 -17 46
-14 46 2 0 -1 10 -8 23 -7 12 -11 28 -10 35 2 6 -2 12 -8 12 -6 0 -9 4 -5 10
3 5 1 17 -4 27 -6 10 -22 56 -37 103 -15 47 -31 90 -35 96 -5 6 -6 14 -2 17 3
4 1 12 -4 19 -5 7 -18 39 -27 70 -10 32 -22 61 -27 64 -5 3 -7 9 -4 14 3 5 1
19 -4 32 -12 30 -24 62 -25 68 -11 45 -32 100 -39 100 -5 0 -7 6 -4 14 3 7 -1
25 -8 39 -7 14 -11 28 -7 31 3 3 1 6 -4 6 -5 0 -10 8 -11 18 0 9 -26 89 -57
177 -31 88 -57 167 -58 175 0 8 -4 20 -8 25 -4 6 -11 25 -15 43 -3 17 -11 32
-16 32 -6 0 -8 4 -5 9 5 7 -1 27 -30 106 -4 11 -8 22 -9 25 -4 18 -58 179 -65
195 -5 11 -23 65 -41 120 -17 55 -36 106 -42 113 -5 6 -7 12 -3 12 3 0 -3 21
-13 48 -10 26 -19 50 -20 54 -2 11 -11 39 -24 73 -6 17 -12 35 -13 40 -3 17
-75 228 -85 250 -5 11 -11 29 -13 41 -2 11 -11 36 -18 55 -8 18 -16 37 -17 41
-1 4 -3 13 -5 20 -3 7 -12 38 -22 68 -9 30 -19 60 -23 65 -3 6 -6 16 -7 24 -3
19 -44 140 -61 178 -7 17 -16 45 -19 62 -4 17 -11 34 -15 37 -5 3 -9 16 -9 30
0 13 -5 24 -11 24 -5 0 -7 4 -4 10 3 5 0 20 -7 32 -7 13 -11 29 -10 36 2 6 -2
12 -8 12 -6 0 -9 4 -6 9 3 5 -1 25 -9 45 -8 20 -12 36 -9 36 4 0 -1 9 -11 20
-10 11 -15 20 -12 20 5 0 -57 193 -80 250 -3 8 -7 21 -9 29 -5 23 -48 146 -54
151 -3 3 -6 12 -7 20 -7 37 -48 156 -58 162 -5 4 -7 8 -4 8 8 0 -9 55 -76 250
-26 74 -48 143 -50 154 -3 10 -9 24 -15 30 -5 7 -7 16 -4 19 3 3 -1 16 -9 28
-9 11 -13 27 -11 34 3 7 1 16 -5 20 -6 3 -11 15 -11 26 0 10 -3 19 -7 19 -5 0
-9 10 -10 23 0 12 -7 36 -14 52 -7 17 -13 33 -14 38 -2 4 -4 10 -5 15 -1 4 -2
10 -1 15 0 4 -3 7 -8 7 -5 0 -8 6 -8 13 2 19 -36 131 -48 139 -5 4 -7 8 -3 8
4 0 -7 39 -24 88 -16 48 -32 98 -35 112 -2 13 -8 29 -12 35 -9 11 -23 63 -19
68 2 2 -5 15 -15 30 -9 15 -15 27 -13 27 3 0 -6 30 -20 68 -14 37 -26 72 -28
77 -10 43 -41 131 -49 136 -5 3 -8 9 -8 13 1 10 0 19 -14 74 -4 17 -12 32 -18
32 -6 0 -8 3 -5 6 4 3 -23 92 -59 197 -36 106 -66 197 -67 202 -3 9 -7 20 -23
63 -3 9 -5 20 -5 25 1 4 -3 7 -9 7 -5 0 -7 4 -4 10 3 5 -1 23 -10 40 -8 16
-13 30 -11 30 3 0 -10 43 -29 95 -19 52 -32 95 -28 95 3 0 -1 8 -10 18 -10 10
-14 21 -11 25 4 4 -1 18 -10 32 -9 14 -14 25 -12 25 3 0 -2 19 -10 43 -9 23
-17 50 -19 59 -2 9 -8 25 -14 36 -6 11 -7 22 -4 26 3 3 1 6 -6 6 -7 0 -9 5 -6
10 4 6 3 16 -2 23 -5 7 -15 32 -22 57 -7 25 -17 53 -22 62 -5 10 -9 25 -9 33
0 8 -5 15 -11 15 -6 0 -9 6 -6 14 3 8 3 17 -1 21 -4 4 -7 10 -8 13 -2 16 -17
68 -23 77 -3 6 -6 15 -7 20 -3 18 -49 150 -54 155 -3 3 -7 16 -9 30 -1 14 -8
28 -13 31 -6 4 -8 11 -4 17 3 6 2 13 -3 16 -4 3 -11 24 -15 46 -3 22 -10 40
-14 40 -4 0 -8 8 -9 18 -1 17 -36 127 -53 167 -10 23 -23 58 -25 65 -4 19 -29
87 -34 95 -3 6 -7 19 -8 30 -2 11 -8 22 -13 23 -6 2 -8 8 -4 13 3 5 0 9 -6 9
-6 0 -9 4 -6 9 3 5 -2 26 -11 47 -9 22 -17 41 -18 44 -1 3 -5 17 -9 33 -5 15
-12 27 -17 27 -5 0 -8 3 -7 8 4 10 -54 156 -65 163 -5 3 -8 10 -8 15 1 5 -6
27 -16 49 -9 22 -17 42 -18 45 0 3 -22 49 -48 104 -26 54 -47 102 -47 107 0 5
-5 9 -12 9 -6 0 -9 3 -5 6 3 3 -5 25 -19 47 -13 23 -38 70 -55 104 -17 34 -40
71 -50 82 -11 12 -17 21 -15 21 8 0 -66 114 -76 118 -4 2 -8 9 -8 14 0 13 -5
19 -105 123 -43 44 -74 73 -70 65 4 -8 -3 -3 -16 12 -28 32 -129 99 -140 93
-4 -3 -10 2 -13 11 -3 8 -10 12 -16 9 -5 -3 -10 -1 -10 4 0 6 -9 11 -20 11
-11 0 -20 5 -20 11 0 6 -7 8 -16 5 -8 -3 -13 -2 -9 3 3 5 -9 13 -27 16 -18 4
-38 11 -44 16 -6 5 -19 10 -30 12 -10 1 -24 5 -29 9 -10 6 -76 20 -92 20 -5 0
-15 4 -25 9 -9 5 -36 11 -60 14 -23 3 -54 7 -68 10 -57 12 -184 20 -320 19
-131 0 -190 -4 -300 -19 -35 -5 -213 -51 -240 -62 -8 -3 -18 -5 -23 -5 -4 1
-7 -2 -7 -6 0 -5 -6 -9 -12 -9 -7 0 -34 -9 -61 -21 -26 -12 -50 -21 -52 -22
-29 -4 -285 -176 -285 -192 0 -4 -5 -8 -12 -8 -20 0 -268 -261 -261 -275 1 -2
-14 -21 -33 -41 -19 -21 -34 -43 -34 -50 0 -6 -7 -17 -15 -24 -8 -7 -15 -21
-15 -32 0 -10 -4 -17 -8 -14 -8 5 -70 -115 -64 -123 2 -2 -1 -7 -6 -10 -8 -5
-49 -105 -57 -141 -2 -8 -8 -30 -14 -47 -5 -18 -7 -33 -4 -33 3 0 0 -6 -6 -14
-6 -7 -13 -33 -16 -57 -2 -24 -7 -57 -10 -74 -9 -42 -10 -236 -2 -320 7 -70 9
-87 28 -200 11 -70 46 -224 61 -275 6 -19 12 -43 13 -55 1 -11 3 -20 4 -20 2
0 4 -11 7 -25 2 -14 9 -36 14 -50 6 -14 12 -34 14 -45 9 -44 89 -270 97 -273
5 -2 7 -7 4 -12 -3 -4 5 -30 17 -57 12 -26 20 -54 19 -60 -1 -7 4 -13 10 -13
7 0 9 -3 6 -6 -3 -4 -1 -16 5 -28 6 -11 13 -31 14 -44 2 -13 7 -29 12 -35 5
-7 17 -37 27 -67 10 -30 22 -60 26 -66 5 -6 6 -14 2 -17 -3 -4 -1 -7 6 -7 7 0
10 -4 7 -8 -5 -8 51 -175 80 -239 8 -17 14 -36 14 -42 0 -6 6 -25 14 -43 22
-51 57 -144 60 -159 1 -8 10 -31 19 -53 9 -21 17 -44 17 -50 0 -7 5 -17 10
-22 6 -6 13 -24 16 -40 3 -16 9 -31 15 -32 5 -2 7 -8 4 -12 -3 -5 -1 -17 4
-27 17 -32 51 -125 51 -139 0 -8 5 -14 10 -14 6 0 9 -3 8 -7 -4 -14 26 -103
34 -103 4 0 7 -3 6 -7 -4 -16 14 -73 22 -73 5 0 7 -6 4 -14 -3 -8 -1 -17 5
-21 6 -3 11 -17 11 -30 0 -13 3 -26 8 -28 4 -3 18 -38 32 -79 13 -40 31 -82
40 -92 13 -17 13 -18 0 -11 -12 7 -13 6 -4 -6 6 -8 18 -36 28 -64 10 -27 20
-57 23 -65 3 -8 7 -22 9 -30 2 -8 8 -16 14 -18 5 -2 7 -8 4 -13 -3 -6 0 -16 6
-24 7 -8 10 -15 6 -15 -4 0 0 -10 8 -22 8 -13 15 -26 16 -30 0 -5 0 -9 1 -10
0 -2 2 -10 4 -18 2 -8 9 -28 16 -45 7 -16 13 -32 14 -35 18 -62 30 -90 37 -90
5 0 7 -4 4 -9 -5 -8 10 -53 53 -156 9 -21 16 -42 16 -45 2 -18 38 -111 46
-116 5 -3 7 -9 4 -14 -3 -5 3 -28 14 -52 11 -24 25 -61 33 -83 7 -22 17 -43
23 -47 5 -4 7 -8 3 -8 -6 0 9 -55 29 -100 3 -8 7 -19 9 -25 19 -60 51 -141 57
-143 4 -2 7 -12 7 -23 0 -11 4 -27 9 -37 17 -32 61 -152 61 -167 0 -8 4 -15 8
-15 4 0 8 -10 9 -22 1 -11 6 -24 10 -27 4 -3 9 -13 11 -21 3 -15 79 -227 134
-375 17 -44 33 -90 35 -102 3 -13 10 -23 16 -23 6 0 8 -3 4 -6 -5 -6 6 -43 33
-109 12 -29 23 -59 24 -65 1 -3 6 -18 13 -35 6 -16 23 -61 37 -100 14 -38 31
-83 37 -100 7 -16 13 -34 15 -40 4 -19 85 -240 95 -260 5 -11 13 -33 18 -50 5
-16 19 -55 31 -85 12 -30 23 -59 24 -65 2 -5 7 -21 13 -35 5 -14 18 -50 29
-80 10 -30 22 -60 27 -67 4 -6 10 -24 13 -40 3 -15 9 -30 15 -31 5 -2 6 -8 3
-13 -3 -6 -1 -16 6 -23 6 -8 12 -22 15 -32 7 -37 40 -119 50 -126 6 -4 7 -8 3
-8 -6 0 16 -69 43 -135 7 -16 13 -32 14 -35 6 -27 29 -87 36 -96 5 -6 6 -14 2
-17 -3 -4 -1 -7 6 -7 7 0 10 -4 7 -9 -3 -5 7 -42 23 -82 56 -142 72 -187 75
-200 2 -8 9 -27 15 -44 22 -51 72 -189 76 -209 3 -11 9 -24 15 -30 5 -5 10
-19 10 -31 0 -12 5 -26 10 -31 6 -6 13 -24 16 -40 3 -16 9 -31 15 -32 5 -2 6
-8 3 -13 -3 -6 0 -17 7 -25 7 -9 14 -23 15 -32 1 -14 68 -198 91 -252 3 -8 8
-23 10 -33 1 -10 10 -31 18 -47 8 -16 15 -36 15 -45 0 -8 5 -15 12 -15 6 0 9
-3 5 -6 -5 -5 16 -74 43 -139 7 -16 14 -37 16 -45 2 -8 7 -23 12 -35 13 -25
37 -90 64 -169 12 -34 24 -63 27 -66 3 -3 7 -12 8 -20 0 -8 15 -53 33 -100 18
-47 49 -132 70 -190 21 -58 44 -118 51 -135 7 -16 13 -32 13 -35 5 -28 42
-120 49 -120 4 0 6 -4 3 -9 -4 -5 3 -31 14 -57 11 -26 22 -55 23 -65 2 -9 8
-24 15 -31 6 -8 9 -18 5 -21 -3 -4 -1 -7 5 -7 6 0 9 -6 6 -14 -3 -8 0 -17 5
-21 6 -3 9 -11 6 -16 -4 -5 -1 -9 5 -9 6 0 9 -4 6 -8 -3 -5 2 -21 10 -36 7
-16 14 -37 14 -47 0 -10 5 -21 10 -24 6 -3 10 -12 10 -19 0 -8 8 -31 17 -52 9
-22 18 -43 19 -49 1 -5 14 -41 29 -80 14 -38 28 -77 30 -85 5 -16 46 -128 66
-175 6 -16 14 -38 15 -47 2 -10 12 -37 22 -60 20 -46 45 -113 70 -193 9 -27
19 -52 22 -55 3 -3 7 -14 8 -25 2 -11 9 -23 15 -27 7 -4 9 -8 4 -8 -4 0 0 -17
9 -38 9 -20 17 -42 18 -49 1 -7 5 -16 9 -19 4 -4 7 -16 7 -26 0 -10 5 -18 11
-18 5 0 8 -4 5 -8 -3 -5 1 -21 9 -35 8 -15 14 -31 15 -35 1 -16 25 -84 65
-187 4 -11 9 -24 10 -30 2 -5 15 -41 30 -80 14 -38 36 -97 47 -130 12 -33 26
-63 32 -67 6 -4 8 -8 4 -8 -6 0 9 -51 39 -130 3 -8 7 -22 9 -30 2 -8 8 -16 14
-18 5 -2 8 -7 5 -12 -4 -6 5 -31 50 -145 4 -11 9 -26 11 -33 1 -8 6 -21 10
-30 4 -9 8 -20 9 -24 2 -5 4 -10 5 -13 1 -3 3 -8 5 -12 2 -8 18 -49 32 -83 3
-8 8 -24 10 -35 2 -10 7 -22 11 -25 4 -3 8 -12 8 -20 3 -23 38 -114 47 -121 5
-3 8 -9 8 -13 -2 -11 12 -60 28 -96 8 -19 16 -38 17 -42 1 -5 3 -10 4 -13 1
-3 3 -8 5 -12 1 -5 7 -21 13 -36 7 -16 12 -34 12 -40 0 -7 8 -24 17 -37 10
-14 16 -26 15 -28 -5 -3 9 -63 19 -82 8 -16 20 -48 24 -65 4 -14 44 -125 55
-150 5 -11 14 -38 21 -60 6 -22 14 -44 18 -50 3 -5 7 -19 8 -30 2 -10 9 -23
16 -27 6 -4 9 -8 5 -8 -7 0 7 -44 32 -105 5 -11 18 -47 30 -80 11 -33 24 -69
29 -80 5 -11 18 -45 29 -75 54 -146 118 -305 125 -308 4 -2 4 -8 1 -13 -3 -6
2 -20 13 -31 10 -12 12 -18 6 -14 -9 5 -11 2 -7 -8 3 -9 11 -16 17 -16 6 0 8
-3 5 -6 -7 -6 11 -49 73 -182 22 -45 39 -88 39 -96 0 -7 7 -19 15 -26 8 -7 15
-19 15 -26 0 -8 5 -14 12 -14 6 0 9 -3 5 -6 -3 -4 10 -36 30 -72 73 -137 126
-227 137 -234 6 -4 7 -8 3 -8 -4 0 6 -20 23 -44 16 -25 30 -47 30 -51 0 -4 6
-13 13 -20 25 -29 33 -40 34 -48 1 -5 9 -19 19 -31 11 -12 32 -41 48 -64 16
-24 36 -47 45 -52 9 -5 12 -10 8 -10 -5 0 -2 -6 5 -14 7 -7 49 -52 92 -100 43
-47 83 -83 87 -80 5 3 9 -1 9 -9 0 -8 10 -22 23 -30 12 -9 38 -29 57 -46 19
-17 41 -31 49 -31 8 0 12 -3 8 -6 -5 -6 76 -74 89 -74 3 0 21 -12 40 -26 19
-15 34 -22 34 -18 0 5 4 4 8 -2 12 -18 85 -63 94 -58 4 3 8 1 8 -4 0 -12 80
-53 91 -46 5 3 12 -2 15 -10 3 -9 14 -16 23 -16 10 0 21 -3 25 -7 4 -5 11 -8
14 -8 4 -1 18 -7 32 -15 14 -7 27 -13 30 -13 3 0 15 -3 28 -8 13 -5 29 -9 36
-9 6 0 17 -5 23 -11 5 -5 24 -11 42 -11 17 -1 31 -4 31 -8 0 -6 25 -13 100
-26 8 -1 25 -5 38 -8 38 -10 65 -15 107 -22 40 -6 65 -9 180 -21 136 -14 597
-5 626 12 3 3 46 7 95 10 121 7 181 15 254 30 14 3 36 7 50 10 83 15 287 95
302 119 4 6 8 7 8 2 0 -4 15 3 34 18 19 14 39 26 45 26 5 0 16 9 24 20 8 11
17 17 20 13 4 -3 7 -1 7 5 0 7 4 12 8 12 5 0 30 20 55 45 26 25 44 45 40 45
-4 0 3 7 15 16 12 8 20 19 18 23 -3 3 11 17 30 30 18 13 31 27 28 32 -3 5 1 9
8 9 14 0 167 144 223 210 95 112 125 151 125 165 0 9 4 14 8 11 8 -5 44 47 42
60 -1 4 5 11 14 16 9 5 16 15 16 23 0 7 4 15 9 17 5 2 11 10 13 18 2 8 13 25
25 39 12 14 20 28 18 31 -3 4 4 15 15 25 11 10 20 23 20 29 0 6 16 36 34 66
19 30 32 58 30 62 -3 4 0 8 6 8 6 0 9 4 6 9 -4 5 -2 11 2 13 13 4 101 186 94
192 -3 3 -1 6 4 6 10 0 40 69 36 83 -1 4 2 7 7 7 7 0 32 54 36 80 0 3 9 20 18
38 10 17 15 32 12 32 -3 0 0 10 7 23 7 12 11 25 10 30 -1 4 3 7 9 7 5 0 8 4 4
9 -3 5 -1 12 5 16 5 3 10 15 10 26 0 10 4 19 8 19 5 0 9 6 9 13 0 6 12 42 26
79 14 36 23 69 20 72 -4 3 -1 6 5 6 10 0 28 55 24 72 -1 5 2 8 7 8 8 0 24 41
25 65 1 6 4 13 9 16 4 3 9 14 11 25 2 10 18 55 35 98 17 43 28 83 25 87 -3 5
-1 9 4 9 9 0 39 88 34 102 -1 5 2 8 6 8 7 0 32 63 37 90 0 3 4 11 8 18 5 6 6
16 3 21 -4 5 -1 11 4 13 6 2 12 13 13 26 0 12 5 22 10 22 4 0 6 4 3 8 -3 5 2
21 10 36 8 16 16 39 19 53 2 14 9 31 16 39 6 8 9 14 5 14 -4 0 0 13 9 30 8 16
15 33 14 37 -1 4 4 24 12 43 7 19 12 38 11 43 -1 4 3 7 8 7 5 0 9 3 9 8 -1 7
0 11 6 30 13 35 16 48 15 56 -1 5 3 12 9 15 6 4 12 18 13 31 2 14 6 27 9 30 8
7 112 292 112 308 0 6 4 12 9 12 4 0 8 8 8 18 0 10 3 22 7 26 4 3 8 12 9 19 3
12 48 136 61 167 3 8 7 17 8 20 1 3 5 13 9 22 4 9 9 22 10 30 2 7 8 27 15 43
6 17 19 50 28 75 9 25 20 50 25 56 4 6 9 23 10 38 1 14 8 26 14 26 12 0 31 38
38 75 2 11 14 42 25 68 11 26 20 51 19 55 0 4 6 23 14 42 9 19 18 44 20 55 1
11 5 22 8 25 4 4 43 109 54 145 2 6 8 23 14 38 7 16 12 32 12 37 0 4 14 46 32
91 17 46 31 89 31 96 0 7 5 13 10 13 5 0 7 7 3 15 -3 8 2 22 11 30 8 9 13 19
9 22 -3 4 0 16 7 27 11 17 30 73 28 83 0 2 11 27 24 58 14 30 25 58 26 63 4
18 54 163 69 197 9 20 49 130 54 150 2 6 8 23 14 38 7 16 12 35 12 43 0 8 4
14 8 14 5 0 9 6 9 13 0 11 47 144 112 317 48 128 75 205 74 210 -1 3 3 11 9
18 6 6 7 12 2 12 -5 0 -4 4 1 8 10 7 37 84 35 98 -1 4 2 10 7 13 8 5 48 110
58 151 2 8 4 17 5 20 1 3 2 8 1 13 0 4 4 7 10 7 6 0 9 7 5 15 -3 8 -2 15 3 15
7 0 23 42 23 60 -1 3 7 13 15 23 9 9 13 17 10 17 -3 0 2 19 13 42 10 23 16 46
14 50 -3 4 -1 8 5 8 9 0 26 56 19 62 -1 2 5 14 15 28 9 13 17 30 17 38 0 7 7
29 16 50 10 20 18 42 19 47 2 6 18 48 35 95 18 47 33 91 33 98 0 6 4 12 9 12
4 0 8 6 8 14 0 8 13 50 30 93 16 43 30 85 32 93 2 8 5 17 8 20 5 5 30 68 33
85 2 6 5 15 8 20 4 6 12 28 19 50 7 22 17 45 22 52 5 7 7 17 3 23 -3 5 -1 10
5 10 7 0 10 7 6 15 -3 8 -2 15 2 15 7 0 31 61 35 90 1 8 4 17 7 20 12 12 30
62 25 71 -4 5 -1 9 4 9 6 0 11 7 11 15 0 8 4 23 10 33 8 14 33 80 44 117 4 12
15 44 26 70 19 47 32 85 32 92 0 4 5 17 11 28 7 11 12 25 13 30 0 6 6 24 13
40 15 38 21 55 20 58 0 1 6 15 15 31 8 16 13 33 10 38 -3 4 0 8 6 8 6 0 10 6
8 13 -1 6 3 22 10 35 7 12 10 22 7 22 -3 0 4 18 15 40 11 21 21 47 23 57 2 10
10 34 19 53 12 29 39 102 43 120 1 3 6 16 12 30 5 14 20 54 33 90 13 36 27 70
32 77 6 7 7 17 3 23 -3 5 -1 10 5 10 7 0 10 6 7 14 -3 8 -3 16 2 18 9 4 73
178 65 178 -3 0 2 7 11 16 9 9 14 23 11 30 -3 8 0 14 6 14 6 0 8 3 5 7 -4 3
-3 11 2 17 6 9 39 96 46 126 1 3 5 14 10 25 31 75 43 114 38 119 -4 3 -1 6 5
6 6 0 14 15 17 33 4 17 11 37 16 43 5 6 10 19 12 30 4 19 20 62 37 99 8 19 23
64 25 75 0 3 4 11 8 17 5 7 10 22 12 33 2 12 11 35 20 52 8 17 15 36 15 42 0
6 7 24 15 40 8 15 13 32 10 36 -3 5 -1 11 4 14 10 7 46 106 43 119 -1 4 3 7 8
7 5 0 9 3 8 8 -3 7 24 85 48 139 8 17 14 37 14 45 0 8 4 18 8 23 4 6 16 37 27
70 10 33 22 65 26 70 9 14 33 89 31 98 -1 4 3 7 10 7 6 0 8 3 5 7 -4 3 -2 12
3 19 6 6 10 16 9 20 -2 5 3 23 11 39 31 71 38 91 42 110 1 11 6 22 10 25 4 3
9 15 11 25 2 11 10 34 16 50 7 17 14 35 15 40 2 6 9 24 15 40 7 17 14 35 15
40 1 6 10 27 19 49 9 21 14 42 11 47 -3 5 -1 9 4 9 8 0 18 23 26 60 1 4 47
127 63 170 4 8 7 17 8 20 1 3 5 14 10 25 29 70 44 115 39 115 -4 0 -1 7 6 15
7 8 9 15 4 15 -5 0 -3 4 4 8 7 5 14 18 16 29 3 11 18 56 35 98 18 43 33 85 35
94 2 9 8 27 13 41 6 14 11 28 12 33 0 4 8 21 16 37 9 17 13 30 9 30 -4 0 -1 7
6 15 7 8 9 15 4 15 -5 0 -4 4 1 8 6 4 19 34 29 67 11 33 23 65 27 70 10 15 43
119 41 128 -1 4 3 7 9 7 5 0 8 4 5 8 -3 5 1 21 9 36 8 15 16 35 17 44 2 9 6
19 10 22 4 3 9 15 11 25 2 11 7 27 10 35 3 8 13 36 23 63 9 26 20 47 24 47 5
0 20 -35 36 -77 15 -43 31 -83 36 -89 4 -6 5 -14 1 -17 -3 -4 -1 -7 6 -7 7 0
9 -5 6 -10 -4 -6 -3 -16 2 -23 5 -7 18 -38 28 -69 11 -32 23 -58 28 -58 4 0 6
-4 3 -9 -3 -5 2 -26 11 -47 9 -22 18 -47 20 -57 2 -10 8 -28 15 -40 7 -12 13
-30 15 -41 2 -10 10 -33 17 -50 23 -50 61 -160 58 -168 -1 -5 3 -8 9 -8 5 0 8
-4 5 -8 -3 -5 1 -20 9 -35 8 -15 12 -27 9 -27 -3 0 1 -10 8 -22 6 -13 13 -32
15 -42 2 -11 7 -24 12 -30 4 -6 14 -32 22 -58 7 -27 18 -48 23 -48 5 0 7 -3 3
-6 -3 -4 1 -23 9 -43 9 -20 17 -40 18 -46 2 -5 8 -23 14 -38 7 -16 12 -33 12
-38 0 -6 9 -28 20 -51 11 -22 17 -44 15 -49 -3 -4 -1 -10 5 -14 5 -3 10 -15
10 -26 0 -10 4 -19 8 -19 5 0 9 -6 9 -14 0 -7 9 -39 21 -70 12 -31 31 -80 41
-108 11 -29 23 -62 27 -73 4 -11 8 -23 9 -27 2 -5 4 -10 5 -13 1 -3 3 -8 5
-12 2 -10 12 -36 36 -97 10 -27 19 -52 19 -57 0 -4 10 -29 21 -56 12 -26 23
-55 24 -63 2 -8 17 -53 34 -100 54 -142 62 -165 65 -175 2 -5 9 -23 15 -40 7
-16 14 -37 16 -45 4 -15 69 -190 82 -220 3 -8 7 -17 8 -20 6 -23 18 -58 25
-75 11 -27 22 -58 25 -70 2 -5 13 -37 26 -70 13 -33 22 -63 21 -67 -1 -5 3 -8
10 -8 6 0 9 -3 6 -6 -8 -7 24 -98 43 -120 12 -16 12 -17 -1 -9 -12 7 -13 6 -4
-6 7 -8 18 -33 25 -56 6 -24 17 -43 22 -43 6 0 8 -3 4 -6 -4 -5 11 -60 39
-134 3 -8 5 -17 6 -20 0 -3 5 -14 11 -25 6 -11 12 -25 13 -30 1 -6 18 -54 38
-108 20 -53 36 -101 36 -107 0 -5 4 -10 10 -10 5 0 7 -6 4 -14 -3 -8 0 -17 5
-21 6 -3 9 -11 6 -16 -4 -5 -2 -9 2 -9 5 0 10 -10 10 -22 1 -13 7 -24 13 -26
5 -2 8 -8 5 -13 -3 -4 1 -21 9 -37 8 -16 12 -32 9 -36 -4 -3 -1 -6 6 -6 7 0 9
-4 6 -10 -3 -5 -1 -10 5 -10 6 0 8 -5 5 -10 -4 -6 -3 -16 2 -23 5 -7 23 -51
39 -99 16 -49 32 -88 37 -88 4 0 5 -4 2 -10 -3 -5 -3 -16 2 -22 4 -7 8 -20 10
-28 1 -8 7 -16 13 -18 5 -2 7 -8 4 -13 -3 -6 0 -16 6 -24 7 -8 10 -15 6 -15
-4 0 0 -10 8 -22 8 -13 15 -26 16 -30 0 -5 0 -9 1 -10 0 -2 2 -10 4 -18 7 -29
31 -90 38 -96 4 -4 7 -17 7 -29 0 -11 5 -26 10 -31 6 -6 12 -19 14 -30 2 -10
10 -32 17 -49 6 -16 13 -34 15 -40 2 -9 18 -54 64 -180 10 -27 22 -59 26 -70
9 -26 9 -25 18 -57 5 -16 12 -28 18 -28 5 0 7 -4 4 -9 -3 -5 2 -26 11 -47 9
-22 17 -41 18 -44 2 -16 149 -416 154 -420 3 -3 7 -12 8 -20 3 -27 107 -305
115 -308 4 -2 6 -8 3 -12 -3 -5 2 -26 11 -47 23 -52 30 -71 47 -123 8 -25 27
-76 41 -114 14 -38 23 -73 20 -78 -3 -4 -2 -14 3 -20 4 -7 9 -21 10 -32 2 -10
10 -33 17 -50 8 -17 22 -55 31 -83 9 -29 21 -55 26 -59 5 -3 7 -9 4 -14 -5 -8
-1 -21 26 -85 17 -43 61 -171 61 -182 1 -7 5 -13 10 -13 5 0 7 -4 3 -10 -3 -5
-1 -17 4 -27 12 -22 36 -86 36 -95 0 -3 3 -10 8 -14 4 -4 7 -18 7 -31 0 -12 5
-23 11 -23 5 0 8 -4 5 -8 -3 -5 1 -19 8 -33 7 -13 13 -28 14 -34 4 -18 24 -80
31 -90 3 -5 7 -19 8 -30 2 -11 8 -21 13 -23 5 -2 6 -10 3 -18 -3 -8 0 -14 6
-14 6 0 8 -6 5 -14 -3 -8 0 -17 5 -21 6 -3 9 -10 6 -15 -3 -5 -1 -11 5 -15 5
-3 10 -15 10 -26 0 -10 4 -19 8 -19 4 0 8 -8 8 -17 1 -16 60 -190 84 -248 4
-11 13 -36 20 -55 7 -19 16 -44 20 -55 5 -11 14 -38 20 -60 6 -22 15 -49 20
-60 10 -25 22 -57 26 -70 10 -35 59 -171 64 -175 3 -3 6 -13 8 -24 2 -10 8
-30 14 -45 6 -14 12 -28 12 -31 5 -25 53 -156 59 -161 5 -3 8 -10 7 -15 0 -5
2 -18 6 -29 3 -11 8 -24 9 -30 37 -110 77 -210 85 -210 14 0 33 -33 54 -95 11
-30 23 -61 29 -67 5 -7 6 -13 2 -13 -4 0 -3 -6 2 -12 5 -7 15 -32 23 -55 7
-24 17 -43 22 -43 5 0 7 -4 3 -9 -3 -5 1 -25 9 -43 18 -41 28 -69 32 -87 1 -8
6 -17 11 -20 4 -3 9 -14 11 -25 2 -10 8 -30 14 -45 6 -14 12 -28 13 -31 1 -3
6 -16 12 -30 5 -14 21 -55 34 -93 13 -37 27 -67 31 -67 4 0 5 -6 2 -14 -3 -8
-1 -17 5 -21 6 -3 11 -15 11 -26 0 -10 4 -19 8 -19 5 0 9 -6 9 -14 0 -14 38
-118 55 -150 5 -10 11 -26 13 -35 7 -34 40 -116 50 -123 6 -4 6 -8 2 -8 -4 0
-2 -10 5 -22 6 -13 13 -29 14 -37 2 -7 12 -36 23 -65 11 -28 26 -64 32 -81 7
-16 13 -32 14 -35 1 -3 6 -16 12 -30 5 -14 21 -55 34 -92 13 -38 28 -68 32
-68 4 0 5 -4 2 -10 -3 -5 1 -20 9 -32 8 -13 15 -26 15 -31 0 -20 25 -87 33
-87 4 0 7 -3 6 -8 -2 -7 30 -110 41 -127 3 -5 7 -19 8 -30 2 -11 8 -24 13 -29
6 -6 10 -18 10 -28 0 -10 5 -18 12 -18 6 0 8 -3 5 -6 -3 -4 -1 -16 5 -28 7
-11 11 -24 10 -28 -1 -5 3 -8 10 -8 6 0 8 -3 5 -7 -4 -3 -2 -12 4 -20 6 -7 9
-13 5 -13 -4 0 1 -15 11 -33 9 -17 16 -35 15 -39 -1 -5 2 -8 8 -8 5 0 7 -7 4
-15 -4 -8 -1 -15 5 -15 6 0 10 -3 9 -7 -1 -7 5 -24 35 -93 6 -14 11 -27 12
-30 1 -3 10 -23 19 -45 10 -22 24 -53 31 -70 7 -16 22 -51 34 -77 11 -26 21
-52 21 -58 0 -5 5 -10 12 -10 6 0 9 -3 5 -6 -6 -7 42 -126 56 -135 5 -3 8 -9
8 -13 -3 -17 12 -56 22 -56 6 0 8 -3 5 -6 -6 -5 49 -133 61 -144 3 -3 7 -12 9
-20 5 -24 75 -165 84 -168 4 -2 6 -8 2 -13 -3 -5 0 -9 6 -9 6 0 9 -4 6 -8 -3
-5 3 -18 13 -28 9 -11 16 -25 13 -32 -2 -6 1 -12 7 -12 6 0 11 -6 11 -13 0 -7
8 -22 18 -33 9 -11 18 -25 19 -30 2 -11 104 -167 139 -213 22 -29 181 -188
212 -214 12 -9 27 -17 32 -17 6 0 10 -4 10 -9 0 -10 122 -87 133 -83 4 1 7 -3
7 -9 0 -5 4 -8 9 -5 5 3 12 -1 15 -10 3 -8 10 -13 15 -9 5 3 12 1 16 -4 3 -5
19 -16 35 -25 19 -9 28 -10 23 -3 -5 8 -2 8 9 -1 16 -13 149 -62 183 -67 11
-2 31 -6 45 -9 26 -6 59 -12 145 -23 141 -20 437 -4 580 31 77 19 172 49 184
59 8 7 16 11 18 9 2 -1 23 6 47 17 24 10 54 22 65 26 12 3 21 11 21 17 0 6 3
9 6 5 4 -3 23 5 43 18 19 14 39 25 44 25 8 0 70 44 95 68 7 6 16 12 20 12 4 0
23 15 43 33 20 17 45 38 55 45 11 7 13 10 5 6 -9 -5 -12 -3 -7 4 4 7 12 12 18
12 6 0 47 36 90 80 44 44 77 80 74 80 -3 0 10 16 29 36 19 20 35 42 35 50 0 9
4 13 9 10 8 -5 15 5 20 26 1 4 13 20 26 34 14 15 25 33 25 40 0 8 3 14 8 14 9
0 43 61 41 74 0 5 3 12 8 15 11 8 56 91 48 91 -3 0 2 11 11 25 9 14 12 25 8
25 -5 0 -3 4 4 9 8 5 15 20 15 35 1 14 5 26 8 26 4 0 10 17 14 38 11 51 11 52
24 97 28 105 31 340 6 485 -26 152 -32 181 -50 255 -22 84 -23 90 -25 90 -1 0
-3 16 -6 34 -2 19 -8 37 -12 40 -4 4 -8 15 -10 26 -6 40 -54 190 -65 204 -10
12 -9 13 3 6 12 -7 13 -6 4 6 -6 8 -19 41 -30 74 -10 33 -20 62 -23 65 -3 3
-8 16 -9 30 -2 14 -8 30 -13 36 -6 7 -11 20 -13 30 -3 11 -10 33 -17 49 -7 17
-13 32 -14 35 -17 57 -29 90 -34 90 -4 0 -8 11 -9 25 -1 14 -10 37 -19 52 -10
15 -17 30 -17 33 2 5 -9 37 -23 70 -3 8 -5 18 -5 23 1 4 -3 7 -10 7 -6 0 -9 3
-5 6 3 3 -10 43 -30 87 -19 45 -48 118 -65 162 -17 44 -34 82 -37 85 -3 3 -8
14 -9 25 -2 11 -7 22 -10 25 -4 3 -8 12 -10 20 -1 8 -7 25 -12 38 -6 12 -14
32 -19 45 -5 12 -17 40 -27 62 -10 22 -19 49 -21 60 -2 10 -8 22 -14 26 -6 3
-10 9 -9 13 2 6 -46 134 -75 201 -12 27 -42 102 -67 165 -5 14 -9 26 -9 28 1
1 -6 17 -16 35 -9 17 -16 35 -15 39 1 5 -3 8 -9 8 -5 0 -7 4 -4 10 3 5 -2 24
-12 42 -9 18 -17 36 -18 40 0 3 -3 10 -7 14 -5 4 -8 15 -8 25 0 10 -6 24 -12
31 -7 7 -13 19 -14 26 -3 37 -5 43 -12 38 -4 -2 -8 3 -9 12 -1 9 -10 35 -19
57 -10 22 -18 42 -19 45 -6 20 -29 77 -51 125 -10 22 -19 42 -19 45 -10 39
-19 60 -26 60 -5 0 -8 3 -7 7 3 15 -14 63 -23 63 -5 0 -6 6 -3 14 3 7 -1 20
-8 27 -7 8 -14 21 -16 29 -2 13 -27 78 -52 135 -12 28 -22 60 -19 60 2 0 -4
14 -13 30 -8 17 -21 42 -27 58 -6 15 -15 37 -20 50 -6 12 -13 32 -16 45 -4 12
-10 22 -15 22 -5 0 -7 6 -4 14 3 8 1 17 -5 21 -6 3 -11 15 -11 26 0 10 -5 19
-12 19 -6 0 -8 3 -5 7 4 3 0 17 -8 30 -9 13 -13 23 -11 23 3 0 -6 25 -20 55
-13 31 -24 62 -24 70 0 8 -5 15 -10 15 -6 0 -9 3 -8 8 4 13 -26 82 -35 82 -4
0 -5 4 -2 10 3 5 0 20 -7 32 -7 13 -13 25 -14 28 0 3 -4 14 -9 25 -4 11 -19
47 -32 80 -13 33 -28 69 -33 80 -5 11 -14 37 -21 58 -7 20 -17 37 -22 37 -4 0
-6 4 -3 8 5 8 -12 51 -41 105 -8 15 -11 27 -7 27 5 0 3 5 -4 12 -7 7 -12 20
-12 29 0 10 -6 24 -13 31 -7 7 -14 16 -15 21 -9 40 -18 67 -34 95 -10 17 -17
33 -16 35 4 5 -86 222 -95 228 -5 3 -7 8 -5 10 5 7 -25 89 -33 89 -5 0 -6 7
-3 15 4 8 1 15 -5 15 -6 0 -10 3 -9 8 4 12 -46 132 -55 132 -5 0 -6 4 -2 10 3
5 1 17 -4 27 -13 25 -36 81 -52 126 -7 20 -17 37 -22 37 -4 0 -5 5 -2 10 4 6
3 16 -2 23 -5 7 -29 62 -53 122 -24 61 -46 112 -49 115 -4 3 -7 12 -9 20 -4
21 -49 135 -92 235 -7 17 -14 35 -16 40 -1 6 -6 21 -12 35 -5 14 -11 30 -12
35 -1 6 -5 15 -10 20 -4 6 -20 42 -35 80 -15 39 -34 86 -43 105 -9 19 -16 37
-17 40 -1 13 -89 226 -97 234 -4 6 -8 18 -8 28 0 10 -4 18 -10 18 -5 0 -7 7
-4 15 4 8 1 15 -6 15 -6 0 -8 5 -5 10 3 6 2 10 -4 10 -6 0 -8 7 -5 15 4 8 2
15 -3 15 -5 0 -10 6 -10 13 0 6 -7 28 -15 47 -17 38 -29 72 -29 80 0 3 -6 14
-13 25 -6 11 -18 39 -26 63 -7 23 -16 42 -19 42 -4 0 -8 10 -8 22 -1 13 -7 24
-13 26 -5 2 -8 8 -4 13 3 5 0 9 -6 9 -6 0 -9 4 -6 9 3 4 -3 27 -14 49 -11 23
-20 48 -20 57 0 8 -5 15 -12 15 -6 0 -8 3 -5 6 3 4 1 16 -5 28 -7 11 -13 26
-14 31 -2 8 -96 243 -129 320 -4 11 -7 23 -7 28 1 4 -3 7 -10 7 -6 0 -9 3 -5
6 5 5 -31 99 -71 184 -9 19 -17 37 -17 40 -3 21 -41 110 -47 110 -4 0 -5 6 -2
14 3 7 -1 20 -8 27 -7 8 -15 23 -16 34 -2 11 -8 22 -13 23 -5 2 -7 7 -4 12 2
4 -2 20 -10 36 -15 32 -37 83 -41 99 -1 6 -10 28 -20 50 -10 22 -19 46 -20 54
-2 8 -6 17 -11 20 -4 3 -9 13 -11 21 -3 17 -10 35 -37 95 -10 22 -18 46 -16
53 1 6 -3 12 -9 12 -5 0 -9 3 -8 8 1 4 -4 23 -11 42 -8 19 -13 38 -12 43 0 4
-3 7 -9 7 -6 0 -9 3 -8 8 1 4 -5 21 -12 37 -7 17 -14 38 -15 48 -1 11 -8 23
-16 28 -8 5 -11 9 -7 9 3 0 -9 37 -29 83 -19 45 -36 91 -38 101 -3 11 -8 22
-12 25 -5 3 -10 15 -11 26 -2 11 -9 23 -15 27 -7 4 -9 8 -5 8 4 0 0 17 -9 38
-8 20 -20 48 -26 62 -6 14 -11 27 -12 30 -2 6 -23 58 -32 80 -3 8 -7 20 -9 25
-1 6 -12 33 -25 60 -13 28 -24 55 -25 60 -1 6 -10 28 -19 50 -10 22 -17 43
-17 48 1 4 -2 7 -6 7 -5 0 -9 6 -10 13 -2 23 -34 107 -42 107 -3 0 -7 6 -7 13
0 11 -91 244 -138 352 -7 17 -28 68 -46 115 -18 47 -35 87 -38 90 -3 3 -8 14
-9 25 -2 11 -11 33 -20 50 -16 29 -19 38 -25 72 -2 9 -9 19 -15 21 -7 2 -10 8
-7 13 3 4 -2 20 -11 34 -9 14 -13 25 -10 25 4 0 1 10 -6 23 -7 12 -13 24 -13
27 -1 3 -7 18 -13 33 -7 16 -12 31 -12 35 -1 4 -9 25 -20 47 -11 22 -19 46
-20 53 0 6 -5 12 -12 12 -6 0 -9 2 -6 5 3 3 -1 22 -9 43 -7 20 -16 45 -20 55
-3 9 -10 17 -15 17 -5 0 -7 3 -5 8 3 4 0 18 -6 32 -5 14 -11 30 -13 35 -1 6
-20 53 -42 105 -21 52 -43 104 -47 115 -5 11 -9 22 -10 25 -2 3 -6 15 -10 28
-4 12 -12 22 -17 22 -5 0 -7 4 -3 10 3 5 2 17 -3 27 -6 10 -15 32 -22 48 -7
17 -18 41 -25 55 -7 14 -13 27 -13 30 -1 9 -14 45 -30 80 -9 19 -17 37 -17 40
-2 20 -102 257 -110 262 -5 4 -6 8 -1 8 4 0 1 11 -8 25 -9 14 -14 25 -12 25 3
0 -2 17 -11 38 -8 20 -20 48 -26 62 -6 14 -11 27 -12 30 -5 21 -19 60 -31 85
-7 17 -27 68 -44 115 -17 47 -35 94 -40 105 -5 11 -23 58 -41 105 -17 47 -36
90 -40 96 -5 6 -6 14 -2 17 3 4 1 7 -6 7 -7 0 -10 4 -7 9 3 5 -1 22 -9 37 -8
16 -15 35 -15 42 0 6 -4 12 -10 12 -5 0 -7 7 -4 15 4 8 1 15 -6 15 -6 0 -9 4
-6 8 3 5 -2 21 -10 36 -7 16 -14 35 -14 42 0 8 -5 14 -11 14 -5 0 -8 4 -5 8 3
5 -1 20 -9 35 -7 14 -11 28 -9 30 3 2 -2 10 -10 16 -8 7 -12 19 -9 27 3 8 0
14 -6 14 -6 0 -10 3 -9 8 3 7 -14 50 -50 132 -9 19 -17 44 -19 54 -2 11 -7 24
-11 30 -5 6 -21 43 -37 81 -16 39 -33 73 -38 76 -5 3 -8 9 -6 13 3 10 -53 130
-64 137 -5 3 -8 9 -7 13 3 9 -32 79 -43 87 -5 3 -8 9 -8 13 1 12 -33 76 -41
76 -4 0 -8 8 -8 18 0 11 -9 27 -20 37 -10 9 -18 20 -18 24 2 7 -31 73 -41 81
-8 7 -29 41 -40 65 -5 11 -19 30 -30 43 -12 12 -19 22 -16 22 8 0 -56 94 -67
98 -4 2 -8 8 -8 13 0 10 -11 26 -47 65 -12 13 -20 24 -17 24 4 0 -40 53 -83
97 -13 13 -27 32 -33 43 -6 11 -17 20 -25 20 -8 0 -15 7 -15 15 0 8 -7 15 -16
15 -8 0 -12 5 -9 10 3 6 2 10 -2 10 -5 0 -29 19 -55 43 -64 59 -87 77 -98 77
-6 0 -10 4 -10 9 0 4 -28 28 -62 52 -35 24 -64 47 -66 51 -2 4 -8 8 -13 8 -4
0 -39 20 -76 43 -81 52 -274 148 -303 150 -11 1 -20 5 -20 9 0 4 -3 7 -7 6 -5
0 -17 2 -28 6 -48 18 -75 27 -150 46 -82 22 -108 27 -160 35 -16 2 -39 6 -50
9 -11 2 -49 7 -85 11 -36 4 -76 10 -90 12 -30 5 -498 11 -503 7z"/>
</g>
</svg>
